<?xml version="1.0" encoding="UTF-8" standalone="no"?><svg xmlns="http://www.w3.org/2000/svg" xmlns:xlink="http://www.w3.org/1999/xlink" contentScriptType="application/ecmascript" contentStyleType="text/css" height="774px" preserveAspectRatio="none" style="width:395px;height:774px;" version="1.1" viewBox="0 0 395 774" width="395px" zoomAndPan="magnify"><defs><filter height="300%" id="f1cqgiqmxa3a5y" width="300%" x="-1" y="-1"><feGaussianBlur result="blurOut" stdDeviation="2.0"/><feColorMatrix in="blurOut" result="blurOut2" type="matrix" values="0 0 0 0 0 0 0 0 0 0 0 0 0 0 0 0 0 0 .4 0"/><feOffset dx="4.0" dy="4.0" in="blurOut2" result="blurOut3"/><feBlend in="SourceGraphic" in2="blurOut3" mode="normal"/></filter></defs><g><!--MD5=[b1e3d2dcb3697de9e6328d1cb436cbc4]
entity frontend--><ellipse cx="171" cy="18" fill="#FEFECE" filter="url(#f1cqgiqmxa3a5y)" rx="8" ry="8" style="stroke: #A80036; stroke-width: 2.0;"/><path d="M171,26 L171,53 M158,34 L184,34 M171,53 L158,68 M171,53 L184,68 " fill="none" filter="url(#f1cqgiqmxa3a5y)" style="stroke: #A80036; stroke-width: 2.0;"/><text fill="#000000" font-family="sans-serif" font-size="14" lengthAdjust="spacingAndGlyphs" textLength="59" x="141.5" y="87.9951">frontend</text><!--MD5=[a6db0c926898241e7c594507fb3ca544]
entity Backend--><rect fill="#FEFECE" filter="url(#f1cqgiqmxa3a5y)" height="36.2969" style="stroke: #A80036; stroke-width: 1.5;" width="81" x="148.5" y="275"/><rect fill="#FEFECE" height="5" style="stroke: #A80036; stroke-width: 1.5;" width="10" x="143.5" y="280"/><rect fill="#FEFECE" height="5" style="stroke: #A80036; stroke-width: 1.5;" width="10" x="143.5" y="301.2969"/><text fill="#000000" font-family="sans-serif" font-size="14" lengthAdjust="spacingAndGlyphs" textLength="61" x="158.5" y="297.9951">Backend</text><!--MD5=[934be5aa35e521126cf9f9962138c324]
entity UploadServer--><rect fill="#FEFECE" filter="url(#f1cqgiqmxa3a5y)" height="36.2969" style="stroke: #A80036; stroke-width: 1.5;" width="112" x="6" y="152"/><rect fill="#FEFECE" height="5" style="stroke: #A80036; stroke-width: 1.5;" width="10" x="1" y="157"/><rect fill="#FEFECE" height="5" style="stroke: #A80036; stroke-width: 1.5;" width="10" x="1" y="178.2969"/><text fill="#000000" font-family="sans-serif" font-size="14" lengthAdjust="spacingAndGlyphs" textLength="92" x="16" y="174.9951">UploadServer</text><!--MD5=[c2970b660fe3bc181236c7d3091f1b60]
entity Hasura--><rect fill="#FEFECE" filter="url(#f1cqgiqmxa3a5y)" height="36.2969" style="stroke: #A80036; stroke-width: 1.5;" width="68" x="224" y="152"/><rect fill="#FEFECE" height="5" style="stroke: #A80036; stroke-width: 1.5;" width="10" x="219" y="157"/><rect fill="#FEFECE" height="5" style="stroke: #A80036; stroke-width: 1.5;" width="10" x="219" y="178.2969"/><text fill="#000000" font-family="sans-serif" font-size="14" lengthAdjust="spacingAndGlyphs" textLength="48" x="234" y="174.9951">Hasura</text><!--MD5=[89112a84c8daddb34abf4f068893e892]
entity PostgreSQL--><path d="M282.5,280.5 C282.5,270.5 333,270.5 333,270.5 C333,270.5 383.5,270.5 383.5,280.5 L383.5,305.7969 C383.5,315.7969 333,315.7969 333,315.7969 C333,315.7969 282.5,315.7969 282.5,305.7969 L282.5,280.5 " fill="#FEFECE" filter="url(#f1cqgiqmxa3a5y)" style="stroke: #000000; stroke-width: 1.5;"/><path d="M282.5,280.5 C282.5,290.5 333,290.5 333,290.5 C333,290.5 383.5,290.5 383.5,280.5 " fill="none" style="stroke: #000000; stroke-width: 1.5;"/><text fill="#000000" font-family="sans-serif" font-size="14" lengthAdjust="spacingAndGlyphs" textLength="81" x="292.5" y="307.4951">PostgreSQL</text><!--MD5=[429fcce4d786b45a80c7616bbab1f5b6]
entity Minio--><polygon fill="#FEFECE" filter="url(#f1cqgiqmxa3a5y)" points="29,265,75,265,82,286,95,286,95,320.5938,29,320.5938,29,265" style="stroke: #000000; stroke-width: 1.5;"/><line style="stroke: #000000; stroke-width: 1.5;" x1="29" x2="82" y1="286" y2="286"/><text fill="#000000" font-family="sans-serif" font-size="14" lengthAdjust="spacingAndGlyphs" textLength="36" x="39" y="305.9951">Minio</text><!--MD5=[cf1de150878ed5d4b495b897c72532ac]
entity RedisQueue--><path d="M141,624 L237,624 C242,624 242,637.1484 242,637.1484 C242,637.1484 242,650.2969 237,650.2969 L141,650.2969 C136,650.2969 136,637.1484 136,637.1484 C136,637.1484 136,624 141,624 " fill="#FEFECE" filter="url(#f1cqgiqmxa3a5y)" style="stroke: #A80036; stroke-width: 1.5;"/><path d="M237,624 C232,624 232,637.1484 232,637.1484 C232,650.2969 237,650.2969 237,650.2969 " fill="none" style="stroke: #A80036; stroke-width: 1.5;"/><text fill="#000000" font-family="sans-serif" font-size="14" lengthAdjust="spacingAndGlyphs" textLength="86" x="141" y="641.9951">RedisQueue</text><!--MD5=[a95bf183813e3f0e835a445e4023d3bb]
entity Worker1--><rect fill="#FEFECE" filter="url(#f1cqgiqmxa3a5y)" height="36.2969" style="stroke: #A80036; stroke-width: 1.5;" width="78" x="94" y="727"/><rect fill="#FEFECE" height="5" style="stroke: #A80036; stroke-width: 1.5;" width="10" x="89" y="732"/><rect fill="#FEFECE" height="5" style="stroke: #A80036; stroke-width: 1.5;" width="10" x="89" y="753.2969"/><text fill="#000000" font-family="sans-serif" font-size="14" lengthAdjust="spacingAndGlyphs" textLength="58" x="104" y="749.9951">Worker1</text><!--MD5=[3e103bbe3d6564552074d4e02f83eadc]
entity Worker2--><rect fill="#FEFECE" filter="url(#f1cqgiqmxa3a5y)" height="36.2969" style="stroke: #A80036; stroke-width: 1.5;" width="78" x="207" y="727"/><rect fill="#FEFECE" height="5" style="stroke: #A80036; stroke-width: 1.5;" width="10" x="202" y="732"/><rect fill="#FEFECE" height="5" style="stroke: #A80036; stroke-width: 1.5;" width="10" x="202" y="753.2969"/><text fill="#000000" font-family="sans-serif" font-size="14" lengthAdjust="spacingAndGlyphs" textLength="58" x="217" y="749.9951">Worker2</text><!--MD5=[2bf969cb3ffa3d9e3c250f940137d944]
entity RedisChannel--><rect fill="#FEFECE" filter="url(#f1cqgiqmxa3a5y)" height="36.2969" style="stroke: #A80036; stroke-width: 1.5;" width="116" x="131" y="398"/><rect fill="#FEFECE" height="5" style="stroke: #A80036; stroke-width: 1.5;" width="10" x="126" y="403"/><rect fill="#FEFECE" height="5" style="stroke: #A80036; stroke-width: 1.5;" width="10" x="126" y="424.2969"/><text fill="#000000" font-family="sans-serif" font-size="14" lengthAdjust="spacingAndGlyphs" textLength="96" x="141" y="420.9951">RedisChannel</text><!--MD5=[1ae4108767cd867a39f7f639a9f8fe11]
entity NodeDispatcher--><rect fill="#FEFECE" filter="url(#f1cqgiqmxa3a5y)" height="36.2969" style="stroke: #A80036; stroke-width: 1.5;" width="132" x="123" y="511"/><rect fill="#FEFECE" height="5" style="stroke: #A80036; stroke-width: 1.5;" width="10" x="118" y="516"/><rect fill="#FEFECE" height="5" style="stroke: #A80036; stroke-width: 1.5;" width="10" x="118" y="537.2969"/><text fill="#000000" font-family="sans-serif" font-size="14" lengthAdjust="spacingAndGlyphs" textLength="112" x="133" y="533.9951">NodeDispatcher</text><!--MD5=[3a0f4ca8570ef5bb71a02330ce580621]
link frontend to Backend--><path d="M174.033,91.194 C178.031,144.83 184.887,236.819 187.719,274.812 " fill="none" id="frontend-Backend" style="stroke: #A80036; stroke-width: 1.0;"/><!--MD5=[4abbe07517275a67cf9a357f1587228d]
link frontend to UploadServer--><path d="M141.215,82.881 C120.793,105.083 94.4955,133.672 77.9371,151.674 " fill="none" id="frontend-UploadServer" style="stroke: #A80036; stroke-width: 1.0;"/><!--MD5=[9671aeba8c6a472337634d914dcd136d]
link frontend to Hasura--><path d="M200.697,90.95 C215.957,111.734 233.745,135.963 245.405,151.845 " fill="none" id="frontend-Hasura" style="stroke: #A80036; stroke-width: 1.0;"/><!--MD5=[460f8d5de094f332986f98ff0906d380]
link Hasura to PostgreSQL--><path d="M282.69,188.073 C292.728,196.121 303.666,206.486 311,218 C320.042,232.196 325.507,250.271 328.729,265.004 " fill="none" id="Hasura-&gt;PostgreSQL" style="stroke: #A80036; stroke-width: 1.0;"/><polygon fill="#A80036" points="329.816,270.267,331.9097,260.6433,328.803,265.3707,324.0756,262.264,329.816,270.267" style="stroke: #A80036; stroke-width: 1.0;"/><!--MD5=[67bf41a0c68909cbb37d646852a44a47]
link UploadServer to Minio--><path d="M62,188.08 C62,206.612 62,236.633 62,259.655 " fill="none" id="UploadServer-&gt;Minio" style="stroke: #A80036; stroke-width: 1.0;"/><polygon fill="#A80036" points="62,264.75,66,255.75,62,259.75,58,255.75,62,264.75" style="stroke: #A80036; stroke-width: 1.0;"/><!--MD5=[338a94914b81ca9ad30d0371d236413e]
link Hasura to Backend--><path d="M245.578,188.05 C239.402,196.818 231.996,207.784 226,218 C216.007,235.029 206.077,255.106 199.025,270.048 " fill="none" id="Hasura-&gt;Backend" style="stroke: #A80036; stroke-width: 1.0;"/><polygon fill="#A80036" points="196.747,274.907,204.188,268.4547,198.8686,270.3794,196.9439,265.0601,196.747,274.907" style="stroke: #A80036; stroke-width: 1.0;"/><text fill="#000000" font-family="sans-serif" font-size="13" lengthAdjust="spacingAndGlyphs" textLength="79" x="227" y="231.0669">callWebhook</text><!--MD5=[4d19adb9279d352cd1b91d5211fc1503]
link Backend to RedisChannel--><path d="M189,311.08 C189,332.398 189,368.919 189,392.499 " fill="none" id="Backend-&gt;RedisChannel" style="stroke: #A80036; stroke-width: 1.0;"/><polygon fill="#A80036" points="189,397.615,193,388.615,189,392.615,185,388.615,189,397.615" style="stroke: #A80036; stroke-width: 1.0;"/><text fill="#000000" font-family="sans-serif" font-size="13" lengthAdjust="spacingAndGlyphs" textLength="60" x="190" y="364.0669">publishTo</text><!--MD5=[e45405d93f5c5c52990288314a406381]
reverse link RedisChannel to NodeDispatcher--><path d="M189,439.473 C189,460.546 189,491.604 189,510.778 " fill="none" id="RedisChannel&lt;-NodeDispatcher" style="stroke: #A80036; stroke-width: 1.0;"/><polygon fill="#A80036" points="189,434.344,185,443.344,189,439.344,193,443.344,189,434.344" style="stroke: #A80036; stroke-width: 1.0;"/><text fill="#000000" font-family="sans-serif" font-size="13" lengthAdjust="spacingAndGlyphs" textLength="76" x="190" y="477.0669">subscribeTo</text><!--MD5=[65eb7facbc5f0416b36fb0beac32946d]
link NodeDispatcher to RedisQueue--><path d="M189,547.031 C189,566.716 189,598.937 189,618.726 " fill="none" id="NodeDispatcher-&gt;RedisQueue" style="stroke: #A80036; stroke-width: 1.0;"/><polygon fill="#A80036" points="189,623.957,193,614.957,189,618.957,185,614.957,189,623.957" style="stroke: #A80036; stroke-width: 1.0;"/><text fill="#000000" font-family="sans-serif" font-size="13" lengthAdjust="spacingAndGlyphs" textLength="31" x="190" y="590.0669">push</text><!--MD5=[5f20188c539353e6537448df15f686cb]
reverse link RedisQueue to Worker1--><path d="M180.086,654.873 C169.692,674.5479 152.602,706.8968 142.12,726.737 " fill="none" id="RedisQueue&lt;-Worker1" style="stroke: #A80036; stroke-width: 1.0;"/><polygon fill="#A80036" points="182.576,650.16,174.8353,656.2494,180.2405,654.581,181.9089,659.9862,182.576,650.16" style="stroke: #A80036; stroke-width: 1.0;"/><text fill="#000000" font-family="sans-serif" font-size="13" lengthAdjust="spacingAndGlyphs" textLength="24" x="168" y="693.0669">pop</text><!--MD5=[6c06f91b75b0f42da5d7fa25cf0d5bbb]
reverse link RedisQueue to Worker2--><path d="M198.073,654.873 C208.653,674.5479 226.048,706.8968 236.717,726.737 " fill="none" id="RedisQueue&lt;-Worker2" style="stroke: #A80036; stroke-width: 1.0;"/><polygon fill="#A80036" points="195.539,650.16,196.2789,659.981,197.9072,654.5636,203.3246,656.1919,195.539,650.16" style="stroke: #A80036; stroke-width: 1.0;"/><text fill="#000000" font-family="sans-serif" font-size="13" lengthAdjust="spacingAndGlyphs" textLength="24" x="221" y="693.0669">pop</text><!--MD5=[d7a6182086b28a84b2f773b698ef25ef]
@startuml
actor frontend
component Backend
component UploadServer
component Hasura
database PostgreSQL
folder Minio
queue RedisQueue 
component Worker1
component Worker2
component RedisChannel
component NodeDispatcher

frontend - - Backend
frontend - - UploadServer
frontend - - Hasura
Hasura - -> PostgreSQL
UploadServer - -> Minio
Hasura - -> Backend : callWebhook
Backend - -> RedisChannel : publishTo
RedisChannel <- - NodeDispatcher : subscribeTo
NodeDispatcher - -> RedisQueue : push
RedisQueue <- - Worker1 : pop
RedisQueue <- - Worker2 : pop
@enduml

PlantUML version 1.2019.12(Sun Nov 03 10:24:54 UTC 2019)
(GPL source distribution)
Java Runtime: Java(TM) SE Runtime Environment
JVM: Java HotSpot(TM) 64-Bit Server VM
Java Version: 1.7.0_25-b15
Operating System: Linux
Default Encoding: UTF-8
Language: en
Country: US
--></g></svg>